# xmcd CD database file
#
# Track frame offsets:
#	150
#	13485
#	34137
#	53450
#	73762
#	87257
#	104002
#	131420
#	151470
#	174550
#	197167
#
# Disc length: 3056 seconds
#
# Revision: 0
# Processed by: cddbd v1.5PL3 Copyright (c) Steve Scherf et al.
# Submitted via: CDex 1.50beta10
#
DISCID=970bee0b
DTITLE=南こうせつ - 夢の時間
DYEAR=1900
DGENRE=Folk
TTITLE0=星になった人へ
TTITLE1=夕陽に悲しいと聞いてごらん
TTITLE2=Ａｌｌ−Ｒｉｇｈｔ Ｍａｎ
TTITLE3=虹の夜のＬＯＶＥ ＳＯＮＧ
TTITLE4=夢の時間
TTITLE5=君がいたから
TTITLE6=去りゆく友へ
TTITLE7=泣かせないで
TTITLE8=君への手紙
TTITLE9=Ａｌｏｎｅ
TTITLE10=夢巡歌
EXTD=
EXTT0=
EXTT1=
EXTT2=
EXTT3=
EXTT4=
EXTT5=
EXTT6=
EXTT7=
EXTT8=
EXTT9=
EXTT10=
PLAYORDER=
